<svg xmlns="http://www.w3.org/2000/svg" width="1200" height="720" viewBox="0 0 1200 720" role="img" aria-labelledby="title desc">
  <title id="title">Inbox Killer  —  email flow with human approval</title>
  <desc id="desc">Diagram showing mixed inbox input, classification lanes, draft replies, and a human approval gate before send.</desc>
  <defs>
    <marker id="arrow" markerWidth="10" markerHeight="10" refX="8" refY="3" orient="auto">
      <path d="M0,0 L8,3 L0,6 Z" fill="#e8a33d"/>
    </marker>
    <style>
      .bg { fill: #0e0c0a; }
      .box { fill: #15120e; stroke: #2a241c; stroke-width: 2; }
      .accent { fill: #e8a33d; }
      .text { fill: #e9e2d4; font-family: 'JetBrains Mono', Consolas, monospace; font-size: 18px; font-weight: 700; }
      .sub { fill: #9a907e; font-family: 'JetBrains Mono', Consolas, monospace; font-size: 13px; }
      .lane { fill: #1c1813; stroke: #3a3226; stroke-width: 1.5; }
      .ok { fill: #6fae6f; }
      .warn { fill: #d98f4a; }
      .gate { fill: #e8a33d; fill-opacity: 0.15; stroke: #e8a33d; stroke-width: 2; stroke-dasharray: 6 4; }
    </style>
  </defs>

  <rect class="bg" width="1200" height="720"/>
  <text x="600" y="48" class="text" text-anchor="middle" font-size="22">Inbox Killer  —  what happens to your email</text>
  <text x="600" y="76" class="sub" text-anchor="middle">classify · plan · diff · approve · nothing sends without you</text>

  <!-- Input -->
  <rect x="80" y="130" width="220" height="72" rx="4" class="box"/>
  <text x="190" y="162" class="text" text-anchor="middle" font-size="16">Mixed inbox</text>
  <text x="190" y="186" class="sub" text-anchor="middle">leads · clients · invoices · noise</text>

  <!-- Read -->
  <rect x="380" y="130" width="160" height="72" rx="4" class="box"/>
  <text x="460" y="168" class="text" text-anchor="middle" font-size="16">Read</text>
  <text x="460" y="190" class="sub" text-anchor="middle">100+ msgs/scan</text>

  <!-- Classify -->
  <rect x="620" y="130" width="180" height="72" rx="4" class="box"/>
  <text x="710" y="168" class="text" text-anchor="middle" font-size="16">Classify</text>
  <text x="710" y="190" class="sub" text-anchor="middle">intent + context</text>

  <!-- Arrows top row -->
  <line x1="300" y1="166" x2="378" y2="166" stroke="#e8a33d" stroke-width="2" marker-end="url(#arrow)"/>
  <line x1="540" y1="166" x2="618" y2="166" stroke="#e8a33d" stroke-width="2" marker-end="url(#arrow)"/>

  <!-- Lanes -->
  <rect x="120" y="280" width="200" height="56" rx="4" class="lane"/>
  <text x="220" y="314" class="sub" text-anchor="middle">Lead lane</text>
  <rect x="360" y="280" width="200" height="56" rx="4" class="lane"/>
  <text x="460" y="314" class="sub" text-anchor="middle">Client lane</text>
  <rect x="600" y="280" width="200" height="56" rx="4" class="lane"/>
  <text x="700" y="314" class="sub" text-anchor="middle">Invoice lane</text>
  <rect x="840" y="280" width="200" height="56" rx="4" class="lane"/>
  <text x="940" y="314" class="sub" text-anchor="middle">Noise · archive</text>

  <line x1="710" y1="202" x2="710" y2="250" stroke="#e8a33d" stroke-width="2"/>
  <line x1="710" y1="250" x2="220" y2="250" stroke="#e8a33d" stroke-width="2"/>
  <line x1="220" y1="250" x2="220" y2="278" stroke="#e8a33d" stroke-width="2" marker-end="url(#arrow)"/>
  <line x1="710" y1="250" x2="460" y2="250" stroke="#e8a33d" stroke-width="2" marker-end="url(#arrow)"/>
  <line x1="710" y1="250" x2="700" y2="250" stroke="#e8a33d" stroke-width="2" marker-end="url(#arrow)"/>
  <line x1="710" y1="250" x2="940" y2="250" stroke="#9a907e" stroke-width="2" marker-end="url(#arrow)"/>

  <!-- Draft -->
  <rect x="360" y="400" width="200" height="64" rx="4" class="box"/>
  <text x="460" y="432" class="text" text-anchor="middle" font-size="16">Draft reply</text>
  <text x="460" y="454" class="sub" text-anchor="middle">your voice · your context</text>

  <line x1="460" y1="336" x2="460" y2="398" stroke="#e8a33d" stroke-width="2" marker-end="url(#arrow)"/>

  <!-- HITL Gate -->
  <rect x="320" y="520" width="280" height="88" rx="4" class="gate"/>
  <text x="460" y="554" class="text" text-anchor="middle" font-size="18" fill="#e8a33d">· YOUR APPROVAL</text>
  <text x="460" y="582" class="sub" text-anchor="middle">edit · send · or delete  —  system never acts alone</text>

  <line x1="460" y1="464" x2="460" y2="518" stroke="#e8a33d" stroke-width="2" marker-end="url(#arrow)"/>

  <!-- Send -->
  <rect x="380" y="640" width="160" height="56" rx="4" class="box"/>
  <text x="460" y="674" class="text" text-anchor="middle" font-size="16">Send</text>

  <line x1="460" y1="608" x2="460" y2="638" stroke="#6fae6f" stroke-width="2" marker-end="url(#arrow)"/>

  <!-- Footer -->
  <text x="600" y="710" class="sub" text-anchor="middle">Norbert · AI Systems Architect · Quietforge · quietforge@flexgrafik.nl</text>
</svg>
