<svg xmlns="http://www.w3.org/2000/svg" width="1200" height="800" viewBox="0 0 1200 800" role="img" aria-labelledby="title desc">
  <title id="title">Multi-agent orchestrator architecture</title>
  <desc id="desc">Three-layer agent architecture on a VPS with single source of truth and human approval before production deploy.</desc>
  <defs>
    <marker id="arrow" markerWidth="10" markerHeight="10" refX="8" refY="3" orient="auto">
      <path d="M0,0 L8,3 L0,6 Z" fill="#e8a33d"/>
    </marker>
    <style>
      .bg { fill: #0e0c0a; }
      .box { fill: #15120e; stroke: #2a241c; stroke-width: 2; }
      .layer { fill: #1c1813; stroke: #3a3226; stroke-width: 1.5; }
      .text { fill: #e9e2d4; font-family: 'JetBrains Mono', Consolas, monospace; font-size: 16px; font-weight: 700; }
      .sub { fill: #9a907e; font-family: 'JetBrains Mono', Consolas, monospace; font-size: 12px; }
      .accent { fill: #e8a33d; }
      .gate { fill: #e8a33d; fill-opacity: 0.12; stroke: #e8a33d; stroke-width: 2; stroke-dasharray: 6 4; }
    </style>
  </defs>

  <rect class="bg" width="1200" height="800"/>
  <text x="600" y="44" class="text" text-anchor="middle" font-size="20">Multi-agent orchestrator  architecture (anonymised)</text>
  <text x="600" y="72" class="sub" text-anchor="middle">FastAPI + LangGraph on VPS · single source of truth · fixed agent contracts</text>

  <!-- SSoT -->
  <rect x="420" y="100" width="360" height="64" rx="4" class="box"/>
  <text x="600" y="128" class="text" text-anchor="middle" font-size="15">Single source of truth</text>
  <text x="600" y="150" class="sub" text-anchor="middle">rules · schemas · agent cards · brain docs</text>

  <!-- Directive layer -->
  <rect x="80" y="210" width="1040" height="100" rx="4" class="layer"/>
  <text x="100" y="238" class="accent" font-family="JetBrains Mono, monospace" font-size="13">DIRECTIVE</text>
  <text x="600" y="262" class="text" text-anchor="middle" font-size="15">Strategist  what to build &amp; why</text>
  <text x="600" y="286" class="sub" text-anchor="middle">strategy · margin guardrails · scope approval</text>

  <!-- Orchestration layer -->
  <rect x="80" y="340" width="1040" height="100" rx="4" class="layer"/>
  <text x="100" y="368" class="accent" font-family="JetBrains Mono, monospace" font-size="13">ORCHESTRATION</text>
  <text x="600" y="392" class="text" text-anchor="middle" font-size="15">Planner  task decomposition &amp; context packets</text>
  <text x="600" y="416" class="sub" text-anchor="middle">implementation plan · which agent gets what · least privilege</text>

  <!-- Execution layer -->
  <rect x="80" y="470" width="1040" height="120" rx="4" class="layer"/>
  <text x="100" y="498" class="accent" font-family="JetBrains Mono, monospace" font-size="13">EXECUTION</text>
  <rect x="120" y="512" width="200" height="56" rx="4" class="box"/>
  <text x="220" y="546" class="sub" text-anchor="middle">Planner node</text>
  <rect x="360" y="512" width="200" height="56" rx="4" class="box"/>
  <text x="460" y="546" class="sub" text-anchor="middle">Coder node</text>
  <rect x="600" y="512" width="200" height="56" rx="4" class="box"/>
  <text x="700" y="546" class="sub" text-anchor="middle">Tester node</text>
  <rect x="840" y="512" width="200" height="56" rx="4" class="box"/>
  <text x="940" y="546" class="sub" text-anchor="middle">Review node</text>

  <!-- VPS -->
  <rect x="200" y="630" width="800" height="72" rx="4" class="box"/>
  <text x="600" y="662" class="text" text-anchor="middle" font-size="15">VPS runtime  FastAPI + LangGraph engine</text>
  <text x="600" y="684" class="sub" text-anchor="middle">EU-hosted · logged actions · scoped service accounts</text>

  <!-- HITL gate -->
  <rect x="380" y="720" width="440" height="56" rx="4" class="gate"/>
  <text x="600" y="752" class="text" text-anchor="middle" font-size="14" fill="#e8a33d">Ô Human approval before production deploy</text>

  <!-- Arrows -->
  <line x1="600" y1="164" x2="600" y2="208" stroke="#e8a33d" stroke-width="2" marker-end="url(#arrow)"/>
  <line x1="600" y1="310" x2="600" y2="338" stroke="#e8a33d" stroke-width="2" marker-end="url(#arrow)"/>
  <line x1="600" y1="440" x2="600" y2="468" stroke="#e8a33d" stroke-width="2" marker-end="url(#arrow)"/>
  <line x1="600" y1="590" x2="600" y2="628" stroke="#e8a33d" stroke-width="2" marker-end="url(#arrow)"/>
  <line x1="600" y1="702" x2="600" y2="718" stroke="#6fae6f" stroke-width="2" marker-end="url(#arrow)"/>

  <text x="600" y="790" class="sub" text-anchor="middle">Norbert · AI Systems Architect · Quietforge · process proof  diagram on request</text>
</svg>
